<svg width="501" height="791" viewBox="0 0 501 791" fill="none" xmlns="http://www.w3.org/2000/svg">
<g filter="url(#filter0_di_5_3)">
<path d="M92.2852 415.367C92.2852 401.305 91.3086 336.949 89.3555 222.301C88.7695 217.809 86.4258 214 82.3242 210.875C78.418 207.555 72.6562 205.016 65.0391 203.258C57.4219 201.5 51.1719 200.23 46.2891 199.449C41.6016 198.668 34.9609 197.887 26.3672 197.105C25.5859 193.59 25.1953 191.148 25.1953 189.781C25.1953 188.609 25.5859 186.461 26.3672 183.336C31.4453 183.531 43.5547 184.02 62.6953 184.801C81.8359 185.387 96.582 185.68 106.934 185.68C115.723 185.68 132.324 185.289 156.738 184.508C181.152 183.727 198.73 183.336 209.473 183.336C259.473 183.336 297.656 194.957 324.023 218.199C350.391 241.441 363.574 272.398 363.574 311.07C363.574 347.789 351.758 377.77 328.125 401.012C304.492 424.254 270.898 435.875 227.344 435.875C201.172 435.875 177.637 430.406 156.738 419.469C156.738 467.125 157.324 518.59 158.496 573.863C158.691 578.941 160.938 583.336 165.234 587.047C169.531 590.562 175.684 593.297 183.691 595.25C191.895 597.203 198.73 598.668 204.199 599.645C209.863 600.426 217.188 601.207 226.172 601.988C226.953 605.895 227.344 608.531 227.344 609.898C227.344 611.461 226.953 613.414 226.172 615.758C192.969 614.586 158.984 614 124.219 614C89.0625 614 55.0781 614.586 22.2656 615.758C21.4844 613.414 21.0938 611.461 21.0938 609.898C21.0938 606.578 21.4844 603.941 22.2656 601.988C31.25 601.207 38.4766 600.426 43.9453 599.645C49.6094 598.668 56.4453 597.203 64.4531 595.25C72.6562 593.297 78.9062 590.562 83.2031 587.047C87.5 583.336 89.7461 578.941 89.9414 573.863C91.5039 523.668 92.2852 470.836 92.2852 415.367ZM158.496 203.551C157.324 273.863 156.738 339.293 156.738 399.84C172.754 407.066 188.672 410.68 204.492 410.68C232.031 410.68 252.734 401.793 266.602 384.02C280.469 366.246 287.402 341.734 287.402 310.484C287.402 238.414 251.758 202.379 180.469 202.379C175.977 202.379 168.652 202.77 158.496 203.551Z" fill="#FFE57C"/>
<path d="M89.3555 222.301L92.355 222.25L92.3522 222.081L92.3303 221.913L89.3555 222.301ZM82.3242 210.875L80.3813 213.161L80.4423 213.213L80.5061 213.261L82.3242 210.875ZM46.2891 199.449L45.7959 202.408L45.8055 202.41L45.8151 202.412L46.2891 199.449ZM26.3672 197.105L23.4386 197.756L23.9139 199.895L26.0956 200.093L26.3672 197.105ZM26.3672 183.336L26.4825 180.338L24.0477 180.245L23.4568 182.608L26.3672 183.336ZM62.6953 184.801L62.573 187.798L62.5882 187.799L62.6035 187.799L62.6953 184.801ZM156.738 419.469L158.129 416.811L153.738 414.513V419.469H156.738ZM158.496 573.863L155.497 573.927L155.497 573.953L155.498 573.979L158.496 573.863ZM165.234 587.047L163.274 589.317L163.304 589.343L163.335 589.369L165.234 587.047ZM183.691 595.25L182.981 598.165L182.989 598.167L182.997 598.168L183.691 595.25ZM204.199 599.645L203.672 602.598L203.73 602.608L203.789 602.616L204.199 599.645ZM226.172 601.988L229.114 601.4L228.673 599.194L226.432 599L226.172 601.988ZM226.172 615.758L226.066 618.756L228.308 618.835L229.018 616.706L226.172 615.758ZM22.2656 615.758L19.4196 616.706L20.1294 618.836L22.3727 618.756L22.2656 615.758ZM22.2656 601.988L22.0057 599L20.166 599.16L19.4802 600.874L22.2656 601.988ZM43.9453 599.645L44.3696 602.614L44.4124 602.608L44.455 602.601L43.9453 599.645ZM64.4531 595.25L63.7583 592.332L63.7503 592.333L63.7423 592.335L64.4531 595.25ZM83.2031 587.047L85.1028 589.369L85.1338 589.343L85.164 589.317L83.2031 587.047ZM89.9414 573.863L92.9392 573.979L92.9396 573.968L92.94 573.957L89.9414 573.863ZM158.496 203.551L158.266 200.56L155.542 200.769L155.497 203.501L158.496 203.551ZM156.738 399.84H153.738V401.777L155.504 402.574L156.738 399.84ZM95.2852 415.367C95.2852 401.271 94.3078 336.878 92.355 222.25L86.3559 222.352C88.3094 337.02 89.2852 401.338 89.2852 415.367H95.2852ZM92.3303 221.913C91.6262 216.515 88.7847 212.026 84.1423 208.489L80.5061 213.261C84.0668 215.974 85.9129 219.102 86.3807 222.689L92.3303 221.913ZM84.2672 208.589C79.8531 204.837 73.5747 202.149 65.7136 200.335L64.3645 206.181C71.7378 207.883 76.9828 210.272 80.3813 213.161L84.2672 208.589ZM65.7136 200.335C58.0633 198.569 51.74 197.283 46.763 196.487L45.8151 202.412C50.6037 203.178 56.7804 204.431 64.3645 206.181L65.7136 200.335ZM46.7823 196.49C41.9848 195.69 35.2575 194.901 26.6388 194.118L26.0956 200.093C34.6644 200.872 41.2183 201.645 45.7959 202.408L46.7823 196.49ZM29.2957 196.455C28.5093 192.916 28.1953 190.776 28.1953 189.781H22.1953C22.1953 191.521 22.6626 194.264 23.4386 197.756L29.2957 196.455ZM28.1953 189.781C28.1953 189.032 28.4868 187.227 29.2776 184.064L23.4568 182.608C22.6851 185.695 22.1953 188.187 22.1953 189.781H28.1953ZM26.2519 186.334C31.3257 186.529 43.4312 187.017 62.573 187.798L62.8177 181.803C43.6782 181.022 31.5649 180.534 26.4825 180.338L26.2519 186.334ZM62.6035 187.799C81.7538 188.386 96.5359 188.68 106.934 188.68V182.68C96.6282 182.68 81.9181 182.388 62.7871 181.802L62.6035 187.799ZM106.934 188.68C115.778 188.68 132.425 188.287 156.834 187.506L156.642 181.509C132.223 182.291 115.668 182.68 106.934 182.68V188.68ZM156.834 187.506C181.246 186.725 198.783 186.336 209.473 186.336V180.336C198.678 180.336 181.059 180.728 156.642 181.509L156.834 187.506ZM209.473 186.336C259.048 186.336 296.413 197.86 322.04 220.45L326.007 215.949C298.9 192.054 259.897 180.336 209.473 180.336V186.336ZM322.04 220.45C347.692 243.061 360.574 273.163 360.574 311.07H366.574C366.574 271.634 353.09 239.821 326.007 215.949L322.04 220.45ZM360.574 311.07C360.574 347.08 349.016 376.258 326.021 398.873L330.229 403.151C354.499 379.281 366.574 348.498 366.574 311.07H360.574ZM326.021 398.873C303.109 421.406 270.367 432.875 227.344 432.875V438.875C271.429 438.875 305.875 427.101 330.229 403.151L326.021 398.873ZM227.344 432.875C201.602 432.875 178.553 427.5 158.129 416.811L155.347 422.127C176.72 433.313 200.741 438.875 227.344 438.875V432.875ZM153.738 419.469C153.738 467.149 154.325 518.635 155.497 573.927L161.495 573.8C160.324 518.544 159.738 467.101 159.738 419.469H153.738ZM155.498 573.979C155.73 579.99 158.429 585.133 163.274 589.317L167.195 584.776C163.446 581.539 161.653 577.893 161.494 573.748L155.498 573.979ZM163.335 589.369C168.105 593.272 174.731 596.152 182.981 598.165L184.402 592.335C176.637 590.441 170.957 587.853 167.134 584.725L163.335 589.369ZM182.997 598.168C191.23 600.129 198.126 601.608 203.672 602.598L204.727 596.691C199.335 595.728 192.559 594.277 184.386 592.332L182.997 598.168ZM203.789 602.616C209.523 603.407 216.902 604.194 225.912 604.977L226.432 599C217.473 598.22 210.203 597.444 204.609 596.673L203.789 602.616ZM223.23 602.577C224.02 606.526 224.344 608.876 224.344 609.898H230.344C230.344 608.187 229.886 605.263 229.114 601.4L223.23 602.577ZM224.344 609.898C224.344 611.007 224.057 612.615 223.326 614.809L229.018 616.706C229.849 614.213 230.344 611.915 230.344 609.898H224.344ZM226.278 612.76C193.038 611.587 159.018 611 124.219 611V617C158.951 617 192.9 617.585 226.066 618.756L226.278 612.76ZM124.219 611C89.0293 611 55.0091 611.586 22.1586 612.76L22.3727 618.756C55.1471 617.585 89.0957 617 124.219 617V611ZM25.1117 614.809C24.3803 612.615 24.0938 611.007 24.0938 609.898H18.0938C18.0938 611.915 18.5884 614.213 19.4196 616.706L25.1117 614.809ZM24.0938 609.898C24.0938 606.764 24.4695 604.556 25.0511 603.102L19.4802 600.874C18.4992 603.327 18.0938 606.392 18.0938 609.898H24.0938ZM22.5255 604.977C31.5352 604.194 38.8231 603.407 44.3696 602.614L43.521 596.675C38.13 597.445 30.9648 598.221 22.0057 599L22.5255 604.977ZM44.455 602.601C50.2086 601.609 57.1155 600.128 65.164 598.165L63.7423 592.335C55.7751 594.279 49.0102 595.727 43.4356 596.688L44.455 602.601ZM65.148 598.168C73.5844 596.16 80.3198 593.282 85.1028 589.369L81.3034 584.725C77.4927 587.843 71.7281 590.434 63.7583 592.332L65.148 598.168ZM85.164 589.317C90.0087 585.133 92.708 579.99 92.9392 573.979L86.9436 573.748C86.7842 577.893 84.9913 581.539 81.2423 584.776L85.164 589.317ZM92.94 573.957C94.5035 523.727 95.2852 470.864 95.2852 415.367H89.2852C89.2852 470.808 88.5043 523.609 86.9429 573.77L92.94 573.957ZM155.497 203.501C154.324 273.827 153.738 339.274 153.738 399.84H159.738C159.738 339.312 160.324 273.899 161.496 203.601L155.497 203.501ZM155.504 402.574C171.865 409.956 188.201 413.68 204.492 413.68V407.68C189.142 407.68 173.643 404.176 157.972 397.105L155.504 402.574ZM204.492 413.68C232.728 413.68 254.405 404.529 268.967 385.865L264.236 382.174C251.064 399.057 231.334 407.68 204.492 407.68V413.68ZM268.967 385.865C283.378 367.394 290.402 342.149 290.402 310.484H284.402C284.402 341.32 277.559 365.098 264.236 382.174L268.967 385.865ZM290.402 310.484C290.402 273.995 281.378 246.075 262.802 227.296C244.22 208.51 216.584 199.379 180.469 199.379V205.379C215.643 205.379 241.474 214.266 258.536 231.515C275.604 248.77 284.402 274.903 284.402 310.484H290.402ZM180.469 199.379C175.852 199.379 168.428 199.778 158.266 200.56L158.726 206.542C168.877 205.761 176.101 205.379 180.469 205.379V199.379Z" fill="black"/>
</g>
<g filter="url(#filter1_di_5_3)">
<path d="M375.422 298.438C394.042 298.438 411.164 301.042 426.789 306.25C442.414 311.458 456.477 314.844 468.977 316.406C462.076 340.625 461.815 366.732 468.195 394.727C461.555 400.326 453.938 403.581 445.344 404.492C444.302 402.018 442.414 396.875 439.68 389.062C437.076 381.12 434.536 374.609 432.062 369.531C429.719 364.453 426.398 358.659 422.102 352.148C417.935 345.638 412.336 340.495 405.305 336.719C398.404 332.812 390.461 330.143 381.477 328.711C368.326 329.883 358.169 333.919 351.008 340.82C343.846 347.721 340.266 356.641 340.266 367.578C340.266 378.776 343.13 388.021 348.859 395.312C354.589 402.474 362.01 407.878 371.125 411.523C380.37 415.039 390.526 418.164 401.594 420.898C412.661 423.503 423.664 426.758 434.602 430.664C445.539 434.44 455.565 439.453 464.68 445.703C473.924 451.823 481.411 461.003 487.141 473.242C492.87 485.482 495.734 500.391 495.734 517.969C495.734 539.323 489.549 557.682 477.18 573.047C464.81 588.411 450.227 599.414 433.43 606.055C416.633 612.695 399.445 616.016 381.867 616.016C343.195 616.016 304.914 607.487 267.023 590.43C267.805 573.633 268.195 563.346 268.195 559.57C268.195 538.477 266.177 515.82 262.141 491.602C273.859 486.003 286.945 485.742 301.398 490.82C306.216 520.378 315.526 543.034 329.328 558.789C343.26 574.544 358.495 583.333 375.031 585.156C390.526 584.115 402.44 579.102 410.773 570.117C419.237 561.003 423.469 549.479 423.469 535.547C423.469 523.828 420.734 513.932 415.266 505.859C409.797 497.656 402.57 491.341 393.586 486.914C384.602 482.357 374.836 478.255 364.289 474.609C353.872 470.964 343.326 467.122 332.648 463.086C321.971 458.919 312.141 453.971 303.156 448.242C294.302 442.513 287.141 434.505 281.672 424.219C276.203 413.932 273.469 401.432 273.469 386.719C273.469 373.438 275.552 361.523 279.719 350.977C284.016 340.43 289.549 331.966 296.32 325.586C303.221 319.206 311.229 313.867 320.344 309.57C329.589 305.273 338.703 302.344 347.688 300.781C356.802 299.219 366.047 298.438 375.422 298.438ZM375.422 306.445C364.484 306.445 353.872 307.747 343.586 310.352C333.299 312.826 323.273 316.927 313.508 322.656C303.872 328.385 296.125 336.784 290.266 347.852C284.406 358.919 281.477 371.875 281.477 386.719C281.477 399.87 284.211 411.198 289.68 420.703C295.148 430.078 302.31 437.37 311.164 442.578C320.148 447.786 329.979 452.409 340.656 456.445C351.333 460.352 361.88 464.323 372.297 468.359C382.844 472.396 392.609 476.953 401.594 482.031C410.578 487.109 417.805 494.206 423.273 503.32C428.742 512.305 431.477 523.047 431.477 535.547C431.477 552.865 425.943 566.862 414.875 577.539C403.807 588.216 388.117 593.555 367.805 593.555C348.273 593.555 330.109 585.417 313.312 569.141C296.516 552.865 285.448 528.516 280.109 496.094C277.505 494.401 274.445 494.401 270.93 496.094C274.445 516.536 276.203 537.695 276.203 559.57C276.203 565.69 275.943 574.349 275.422 585.547C307.714 600.521 338.508 608.008 367.805 608.008C392.023 608.008 414.419 600.846 434.992 586.523C455.565 572.07 465.852 551.888 465.852 525.977C465.852 511.263 462.987 498.828 457.258 488.672C451.529 478.385 444.042 470.378 434.797 464.648C425.552 458.919 415.396 453.971 404.328 449.805C393.26 445.638 382.258 441.732 371.32 438.086C360.383 434.31 350.292 430.143 341.047 425.586C331.932 421.029 324.51 414.583 318.781 406.25C313.052 397.786 310.188 387.565 310.188 375.586C310.188 358.789 315.852 345.378 327.18 335.352C338.508 325.326 354.589 320.312 375.422 320.312C411.62 320.312 436.555 345.378 450.227 395.508C454.263 396.159 457.062 395.247 458.625 392.773C454.328 361.003 444.888 338.672 430.305 325.781C415.852 312.891 397.557 306.445 375.422 306.445Z" fill="#E6D89E"/>
<path d="M468.977 316.406L471.862 317.228L472.821 313.863L469.349 313.429L468.977 316.406ZM468.195 394.727L470.129 397.02L471.526 395.842L471.12 394.06L468.195 394.727ZM445.344 404.492L442.579 405.656L443.444 407.711L445.66 407.475L445.344 404.492ZM439.68 389.062L436.829 389.997L436.838 390.025L436.848 390.054L439.68 389.062ZM432.062 369.531L429.339 370.788L429.352 370.817L429.366 370.845L432.062 369.531ZM422.102 352.148L419.575 353.766L419.586 353.783L419.598 353.801L422.102 352.148ZM405.305 336.719L403.827 339.33L403.856 339.346L403.885 339.362L405.305 336.719ZM381.477 328.711L381.949 325.748L381.581 325.69L381.21 325.723L381.477 328.711ZM351.008 340.82L348.926 338.66L351.008 340.82ZM348.859 395.312L346.5 397.166L346.509 397.176L346.517 397.187L348.859 395.312ZM371.125 411.523L370.011 414.309L370.035 414.318L370.059 414.328L371.125 411.523ZM401.594 420.898L400.874 423.811L400.89 423.815L400.907 423.819L401.594 420.898ZM434.602 430.664L433.593 433.489L433.608 433.495L433.623 433.5L434.602 430.664ZM464.68 445.703L462.983 448.177L463.003 448.191L463.024 448.205L464.68 445.703ZM267.023 590.43L264.027 590.29L263.932 592.328L265.792 593.165L267.023 590.43ZM262.141 491.602L260.847 488.895L258.81 489.868L259.181 492.095L262.141 491.602ZM301.398 490.82L304.359 490.338L304.073 488.58L302.393 487.99L301.398 490.82ZM329.328 558.789L327.072 560.766L327.081 560.776L329.328 558.789ZM375.031 585.156L374.703 588.138L374.967 588.167L375.232 588.149L375.031 585.156ZM410.773 570.117L408.575 568.076L408.574 568.077L410.773 570.117ZM415.266 505.859L412.769 507.523L412.776 507.533L412.782 507.542L415.266 505.859ZM393.586 486.914L392.229 489.59L392.244 489.597L392.26 489.605L393.586 486.914ZM364.289 474.609L363.298 477.441L363.309 477.445L364.289 474.609ZM332.648 463.086L331.558 465.881L331.573 465.886L331.588 465.892L332.648 463.086ZM303.156 448.242L301.526 450.761L301.535 450.766L301.543 450.772L303.156 448.242ZM279.719 350.977L276.94 349.845L276.934 349.859L276.929 349.874L279.719 350.977ZM296.32 325.586L294.284 323.383L294.273 323.393L294.263 323.403L296.32 325.586ZM320.344 309.57L319.079 306.85L319.072 306.853L319.064 306.857L320.344 309.57ZM347.688 300.781L347.181 297.824L347.173 297.826L347.688 300.781ZM343.586 310.352L344.287 313.268L344.305 313.264L344.322 313.26L343.586 310.352ZM313.508 322.656L311.99 320.069L311.982 320.073L311.975 320.078L313.508 322.656ZM290.266 347.852L292.917 349.255L290.266 347.852ZM289.68 420.703L287.079 422.199L287.084 422.207L287.088 422.215L289.68 420.703ZM311.164 442.578L309.643 445.164L309.651 445.169L309.659 445.174L311.164 442.578ZM340.656 456.445L339.595 459.251L339.61 459.257L339.626 459.263L340.656 456.445ZM372.297 468.359L371.213 471.157L371.225 471.161L372.297 468.359ZM423.273 503.32L420.701 504.864L420.706 504.872L420.711 504.88L423.273 503.32ZM280.109 496.094L283.07 495.606L282.854 494.3L281.744 493.578L280.109 496.094ZM270.93 496.094L269.628 493.391L267.59 494.372L267.973 496.602L270.93 496.094ZM275.422 585.547L272.425 585.407L272.331 587.421L274.16 588.269L275.422 585.547ZM434.992 586.523L436.706 588.986L436.717 588.978L434.992 586.523ZM457.258 488.672L454.637 490.132L454.641 490.139L454.645 490.146L457.258 488.672ZM434.797 464.648L436.377 462.098L434.797 464.648ZM371.32 438.086L370.341 440.922L370.356 440.927L370.372 440.932L371.32 438.086ZM341.047 425.586L339.705 428.269L339.713 428.273L339.72 428.277L341.047 425.586ZM318.781 406.25L316.297 407.932L316.303 407.941L316.309 407.95L318.781 406.25ZM327.18 335.352L325.191 333.105L327.18 335.352ZM450.227 395.508L447.332 396.297L447.841 398.162L449.749 398.47L450.227 395.508ZM458.625 392.773L461.161 394.375L461.744 393.453L461.598 392.371L458.625 392.773ZM430.305 325.781L428.308 328.02L428.318 328.029L430.305 325.781ZM375.422 301.438C393.761 301.438 410.558 304.002 425.84 309.096L427.738 303.404C411.77 298.081 394.323 295.438 375.422 295.438V301.438ZM425.84 309.096C441.599 314.349 455.859 317.79 468.604 319.383L469.349 313.429C457.094 311.898 443.229 308.568 427.738 303.404L425.84 309.096ZM466.091 315.584C459.034 340.352 458.794 366.976 465.27 395.393L471.12 394.06C464.836 366.487 465.117 340.898 471.862 317.228L466.091 315.584ZM466.262 392.433C460.077 397.648 453.022 400.661 445.027 401.509L445.66 407.475C454.853 406.5 463.033 403.003 470.129 397.02L466.262 392.433ZM448.109 403.328C447.109 400.954 445.251 395.9 442.511 388.071L436.848 390.054C439.577 397.85 441.495 403.082 442.579 405.656L448.109 403.328ZM442.53 388.128C439.902 380.111 437.314 373.461 434.759 368.217L429.366 370.845C431.759 375.757 434.249 382.129 436.829 389.997L442.53 388.128ZM434.786 368.274C432.36 363.017 428.956 357.087 424.605 350.496L419.598 353.801C423.841 360.23 427.077 365.889 429.339 370.788L434.786 368.274ZM424.628 350.531C420.177 343.576 414.191 338.086 406.724 334.076L403.885 339.362C410.481 342.904 415.693 347.7 419.575 353.766L424.628 350.531ZM406.782 334.108C399.528 330.001 391.235 327.229 381.949 325.748L381.004 331.674C389.687 333.058 397.28 335.624 403.827 339.33L406.782 334.108ZM381.21 325.723C367.601 326.935 356.721 331.148 348.926 338.66L353.089 342.981C359.617 336.69 369.05 332.83 381.743 331.699L381.21 325.723ZM348.926 338.66C341.116 346.186 337.266 355.916 337.266 367.578H343.266C343.266 357.366 346.577 349.257 353.089 342.981L348.926 338.66ZM337.266 367.578C337.266 379.304 340.275 389.243 346.5 397.166L351.218 393.459C345.985 386.799 343.266 378.248 343.266 367.578H337.266ZM346.517 397.187C352.593 404.781 360.45 410.485 370.011 414.309L372.239 408.738C363.571 405.271 356.585 400.167 351.202 393.438L346.517 397.187ZM370.059 414.328C379.432 417.892 389.706 421.052 400.874 423.811L402.313 417.986C391.346 415.276 381.307 412.186 372.191 408.719L370.059 414.328ZM400.907 423.819C411.863 426.397 422.758 429.62 433.593 433.489L435.611 427.839C424.57 423.896 413.46 420.609 402.281 417.978L400.907 423.819ZM433.623 433.5C444.318 437.192 454.101 442.086 462.983 448.177L466.376 443.229C457.03 436.82 446.76 431.688 435.581 427.828L433.623 433.5ZM463.024 448.205C471.717 453.959 478.877 462.665 484.424 474.514L489.858 471.97C483.946 459.341 476.132 449.686 466.336 443.202L463.024 448.205ZM484.424 474.514C489.919 486.255 492.734 500.703 492.734 517.969H498.734C498.734 500.078 495.82 484.709 489.858 471.97L484.424 474.514ZM492.734 517.969C492.734 538.699 486.747 556.379 474.843 571.166L479.516 574.928C492.352 558.985 498.734 539.947 498.734 517.969H492.734ZM474.843 571.166C462.768 586.164 448.597 596.832 432.327 603.265L434.533 608.845C451.856 601.996 466.852 590.659 479.516 574.928L474.843 571.166ZM432.327 603.265C415.871 609.77 399.057 613.016 381.867 613.016V619.016C399.833 619.016 417.394 615.62 434.533 608.845L432.327 603.265ZM381.867 613.016C343.651 613.016 305.788 604.59 268.255 587.694L265.792 593.165C304.04 610.384 342.74 619.016 381.867 619.016V613.016ZM270.02 590.569C270.8 573.803 271.195 563.433 271.195 559.57H265.195C265.195 563.26 264.809 573.462 264.027 590.29L270.02 590.569ZM271.195 559.57C271.195 538.287 269.159 515.464 265.1 491.108L259.181 492.095C263.195 516.176 265.195 538.666 265.195 559.57H271.195ZM263.434 494.308C274.309 489.113 286.555 488.785 300.404 493.651L302.393 487.99C287.335 482.699 273.41 482.893 260.847 488.895L263.434 494.308ZM298.438 491.303C303.309 521.188 312.773 544.444 327.072 560.766L331.585 556.812C318.279 541.624 309.124 519.567 304.359 490.338L298.438 491.303ZM327.081 560.776C341.372 576.937 357.245 586.214 374.703 588.138L375.36 582.174C359.745 580.453 345.149 572.152 331.575 556.802L327.081 560.776ZM375.232 588.149C391.278 587.071 403.991 581.841 412.973 572.157L408.574 568.077C400.89 576.362 389.774 581.158 374.83 582.163L375.232 588.149ZM412.972 572.159C422.014 562.421 426.469 550.138 426.469 535.547H420.469C420.469 548.82 416.46 559.584 408.575 568.076L412.972 572.159ZM426.469 535.547C426.469 523.351 423.617 512.839 417.749 504.177L412.782 507.542C417.851 515.025 420.469 524.305 420.469 535.547H426.469ZM417.762 504.195C411.995 495.546 404.362 488.88 394.912 484.223L392.26 489.605C400.779 493.803 407.598 499.767 412.769 507.523L417.762 504.195ZM394.943 484.239C385.825 479.613 375.932 475.46 365.269 471.774L363.309 477.445C373.74 481.051 383.378 485.1 392.229 489.59L394.943 484.239ZM365.28 471.778C354.888 468.14 344.364 464.308 333.709 460.28L331.588 465.892C342.287 469.937 352.857 473.787 363.298 477.441L365.28 471.778ZM333.739 460.291C323.231 456.19 313.577 451.329 304.769 445.713L301.543 450.772C310.705 456.614 320.712 461.648 331.558 465.881L333.739 460.291ZM304.786 445.723C296.404 440.3 289.576 432.694 284.321 422.81L279.023 425.627C284.706 436.316 292.2 444.726 301.526 450.761L304.786 445.723ZM284.321 422.81C279.135 413.057 276.469 401.068 276.469 386.719H270.469C270.469 401.797 273.271 414.808 279.023 425.627L284.321 422.81ZM276.469 386.719C276.469 373.751 278.502 362.22 282.509 352.079L276.929 349.874C272.602 360.827 270.469 373.124 270.469 386.719H276.469ZM282.497 352.108C286.667 341.872 291.982 333.796 298.378 327.769L294.263 323.403C287.117 330.136 281.364 338.987 276.94 349.845L282.497 352.108ZM298.357 327.789C305.017 321.631 312.765 316.46 321.623 312.284L319.064 306.857C309.693 311.275 301.425 316.781 294.284 323.383L298.357 327.789ZM321.608 312.291C330.642 308.092 339.505 305.249 348.202 303.737L347.173 297.826C337.901 299.438 328.535 302.455 319.079 306.85L321.608 312.291ZM348.194 303.738C357.139 302.205 366.214 301.438 375.422 301.438V295.438C365.879 295.438 356.465 296.233 347.181 297.824L348.194 303.738ZM375.422 303.445C364.244 303.445 353.384 304.776 342.85 307.443L344.322 313.26C354.361 310.718 364.725 309.445 375.422 309.445V303.445ZM342.884 307.435C332.292 309.982 321.992 314.201 311.99 320.069L315.026 325.244C324.555 319.654 334.307 315.669 344.287 313.268L342.884 307.435ZM311.975 320.078C301.812 326.12 293.7 334.952 287.614 346.448L292.917 349.255C298.55 338.616 305.933 330.65 315.041 325.235L311.975 320.078ZM287.614 346.448C281.487 358.022 278.477 371.476 278.477 386.719H284.477C284.477 372.274 287.325 359.817 292.917 349.255L287.614 346.448ZM278.477 386.719C278.477 400.29 281.301 412.156 287.079 422.199L292.28 419.207C287.121 410.24 284.477 399.449 284.477 386.719H278.477ZM287.088 422.215C292.801 432.008 300.321 439.68 309.643 445.164L312.685 439.992C304.299 435.059 297.496 428.149 292.271 419.192L287.088 422.215ZM309.659 445.174C318.799 450.472 328.78 455.163 339.595 459.251L341.717 453.639C331.179 449.655 321.498 445.101 312.669 439.983L309.659 445.174ZM339.626 459.263C350.285 463.163 360.814 467.127 371.213 471.157L373.381 465.562C362.946 461.519 352.382 457.541 341.687 453.628L339.626 459.263ZM371.225 471.161C381.645 475.149 391.274 479.645 400.118 484.643L403.07 479.42C393.944 474.262 384.042 469.642 373.369 465.558L371.225 471.161ZM400.118 484.643C408.636 489.458 415.491 496.18 420.701 504.864L425.846 501.777C420.119 492.231 412.52 484.761 403.07 479.42L400.118 484.643ZM420.711 504.88C425.844 513.313 428.477 523.492 428.477 535.547H434.477C434.477 522.601 431.641 511.297 425.836 501.76L420.711 504.88ZM428.477 535.547C428.477 552.163 423.197 565.342 412.792 575.38L416.958 579.698C428.688 568.382 434.477 553.566 434.477 535.547H428.477ZM412.792 575.38C402.445 585.362 387.597 590.555 367.805 590.555V596.555C388.637 596.555 405.17 591.07 416.958 579.698L412.792 575.38ZM367.805 590.555C349.203 590.555 331.755 582.834 315.4 566.986L311.225 571.295C328.464 587.999 347.344 596.555 367.805 596.555V590.555ZM315.4 566.986C299.219 551.307 288.345 527.643 283.07 495.606L277.149 496.581C282.551 529.388 293.812 554.422 311.225 571.295L315.4 566.986ZM281.744 493.578C278.03 491.164 273.81 491.378 269.628 493.391L272.231 498.797C275.081 497.425 276.981 497.638 278.474 498.609L281.744 493.578ZM267.973 496.602C271.458 516.868 273.203 537.856 273.203 559.57H279.203C279.203 537.534 277.432 516.205 273.886 495.585L267.973 496.602ZM273.203 559.57C273.203 565.62 272.945 574.225 272.425 585.407L278.419 585.686C278.94 574.473 279.203 565.76 279.203 559.57H273.203ZM274.16 588.269C306.764 603.387 337.988 611.008 367.805 611.008V605.008C339.027 605.008 308.664 597.654 276.684 582.825L274.16 588.269ZM367.805 611.008C392.659 611.008 415.649 603.646 436.706 588.986L433.278 584.061C413.189 598.047 391.388 605.008 367.805 605.008V611.008ZM436.717 588.978C458.118 573.943 468.852 552.83 468.852 525.977H462.852C462.852 550.946 453.012 570.197 433.268 584.069L436.717 588.978ZM468.852 525.977C468.852 510.879 465.912 497.907 459.871 487.198L454.645 490.146C460.062 499.749 462.852 511.647 462.852 525.977H468.852ZM459.879 487.212C453.922 476.518 446.091 468.118 436.377 462.098L433.217 467.198C441.992 472.637 449.135 480.253 454.637 490.132L459.879 487.212ZM436.377 462.098C426.953 456.258 416.62 451.226 405.385 446.997L403.271 452.612C414.172 456.716 424.151 461.58 433.217 467.198L436.377 462.098ZM405.385 446.997C394.282 442.817 383.244 438.898 372.269 435.24L370.372 440.932C381.272 444.565 392.238 448.459 403.271 452.612L405.385 446.997ZM372.299 435.25C361.466 431.51 351.493 427.391 342.373 422.895L339.72 428.277C349.091 432.896 359.299 437.11 370.341 440.922L372.299 435.25ZM342.389 422.903C333.724 418.571 326.693 412.462 321.253 404.55L316.309 407.95C322.328 416.705 330.14 423.487 339.705 428.269L342.389 422.903ZM321.266 404.568C315.927 396.682 313.188 387.071 313.188 375.586H307.188C307.188 388.059 310.177 398.891 316.297 407.932L321.266 404.568ZM313.188 375.586C313.188 359.542 318.559 346.988 329.168 337.598L325.191 333.105C313.145 343.767 307.188 358.036 307.188 375.586H313.188ZM329.168 337.598C339.771 328.214 355.044 323.312 375.422 323.312V317.312C354.133 317.312 337.245 322.437 325.191 333.105L329.168 337.598ZM375.422 323.312C392.744 323.312 407.255 329.276 419.145 341.227C431.113 353.258 440.573 371.514 447.332 396.297L453.121 394.718C446.208 369.372 436.365 350.03 423.398 336.996C410.353 323.882 394.298 317.312 375.422 317.312V323.312ZM449.749 398.47C454.414 399.222 458.702 398.27 461.161 394.375L456.089 391.171C455.423 392.225 454.112 393.096 450.704 392.546L449.749 398.47ZM461.598 392.371C457.263 360.317 447.669 337.126 432.292 323.533L428.318 328.029C442.107 340.218 451.394 361.688 455.652 393.176L461.598 392.371ZM432.302 323.542C417.22 310.092 398.181 303.445 375.422 303.445V309.445C396.933 309.445 414.483 315.69 428.308 328.02L432.302 323.542Z" fill="black"/>
</g>
<defs>
<filter id="filter0_di_5_3" x="17.0938" y="183.336" width="350.48" height="440.422" filterUnits="userSpaceOnUse" color-interpolation-filters="sRGB">
<feFlood flood-opacity="0" result="BackgroundImageFix"/>
<feColorMatrix in="SourceAlpha" type="matrix" values="0 0 0 0 0 0 0 0 0 0 0 0 0 0 0 0 0 0 127 0" result="hardAlpha"/>
<feOffset dy="4"/>
<feGaussianBlur stdDeviation="2"/>
<feComposite in2="hardAlpha" operator="out"/>
<feColorMatrix type="matrix" values="0 0 0 0 0 0 0 0 0 0 0 0 0 0 0 0 0 0 0.25 0"/>
<feBlend mode="normal" in2="BackgroundImageFix" result="effect1_dropShadow_5_3"/>
<feBlend mode="normal" in="SourceGraphic" in2="effect1_dropShadow_5_3" result="shape"/>
<feColorMatrix in="SourceAlpha" type="matrix" values="0 0 0 0 0 0 0 0 0 0 0 0 0 0 0 0 0 0 127 0" result="hardAlpha"/>
<feOffset dy="4"/>
<feGaussianBlur stdDeviation="2"/>
<feComposite in2="hardAlpha" operator="arithmetic" k2="-1" k3="1"/>
<feColorMatrix type="matrix" values="0 0 0 0 0 0 0 0 0 0 0 0 0 0 0 0 0 0 0.25 0"/>
<feBlend mode="normal" in2="shape" result="effect2_innerShadow_5_3"/>
</filter>
<filter id="filter1_di_5_3" x="258.141" y="298.438" width="241.594" height="325.578" filterUnits="userSpaceOnUse" color-interpolation-filters="sRGB">
<feFlood flood-opacity="0" result="BackgroundImageFix"/>
<feColorMatrix in="SourceAlpha" type="matrix" values="0 0 0 0 0 0 0 0 0 0 0 0 0 0 0 0 0 0 127 0" result="hardAlpha"/>
<feOffset dy="4"/>
<feGaussianBlur stdDeviation="2"/>
<feComposite in2="hardAlpha" operator="out"/>
<feColorMatrix type="matrix" values="0 0 0 0 0 0 0 0 0 0 0 0 0 0 0 0 0 0 0.25 0"/>
<feBlend mode="normal" in2="BackgroundImageFix" result="effect1_dropShadow_5_3"/>
<feBlend mode="normal" in="SourceGraphic" in2="effect1_dropShadow_5_3" result="shape"/>
<feColorMatrix in="SourceAlpha" type="matrix" values="0 0 0 0 0 0 0 0 0 0 0 0 0 0 0 0 0 0 127 0" result="hardAlpha"/>
<feOffset dy="4"/>
<feGaussianBlur stdDeviation="2"/>
<feComposite in2="hardAlpha" operator="arithmetic" k2="-1" k3="1"/>
<feColorMatrix type="matrix" values="0 0 0 0 0 0 0 0 0 0 0 0 0 0 0 0 0 0 0.25 0"/>
<feBlend mode="normal" in2="shape" result="effect2_innerShadow_5_3"/>
</filter>
</defs>
</svg>
